<svg xmlns="http://www.w3.org/2000/svg" viewBox="0 0 72 72" width="72" height="72" style="width: 100%; height: 100%; transform: translate3d(0px, 0px, 0px);" preserveAspectRatio="xMidYMid meet"><defs><clipPath id="__lottie_element_2"><rect width="72" height="72" x="0" y="0"></rect></clipPath></defs><g clip-path="url(#__lottie_element_2)"><g style="display: block;" transform="matrix(1,0,0,1,36,36)" opacity="1"><path stroke-linecap="butt" stroke-linejoin="miter" fill-opacity="0" stroke-miterlimit="4" stroke="rgb(207,207,207)" stroke-opacity="1" stroke-width="2" d=" M18.323999404907227,4.427999973297119 C18.323999404907227,4.427999973297119 18.28700065612793,14.213000297546387 18.28700065612793,14.213000297546387 C18.28700065612793,24.312999725341797 10.100000381469727,32.5 0,32.5 C0,32.5 0,32.5 0,32.5 C-10.100000381469727,32.5 -18.28700065612793,24.312999725341797 -18.28700065612793,14.213000297546387 C-18.28700065612793,14.213000297546387 -18.28700065612793,-14.213000297546387 -18.28700065612793,-14.213000297546387 C-18.28700065612793,-24.312999725341797 -10.100000381469727,-32.5 0,-32.5 C0,-32.5 0,-32.5 0,-32.5 C10.100000381469727,-32.5 18.28700065612793,-24.312999725341797 18.28700065612793,-14.213000297546387 C18.28700065612793,-14.213000297546387 18.28700065612793,7.375999927520752 18.28700065612793,7.375999927520752"></path></g><g style="display: none;" transform="matrix(1,0,0,1,36,36)" opacity="1"><path stroke-linecap="butt" stroke-linejoin="miter" fill-opacity="0" stroke-miterlimit="4" stroke="rgb(207,207,207)" stroke-opacity="1" stroke-width="2" d="M0 0"></path></g><g style="display: block;" transform="matrix(1,0,0,1,36,36)" opacity="1"><path stroke-linecap="butt" stroke-linejoin="miter" fill-opacity="0" stroke-miterlimit="4" stroke="rgb(155,55,255)" stroke-opacity="1" stroke-width="2" d="M0 0"></path></g><g style="display: none;" transform="matrix(1,0,0,1,36,36)" opacity="1"><path stroke-linecap="butt" stroke-linejoin="miter" fill-opacity="0" stroke-miterlimit="4" stroke="rgb(155,55,255)" stroke-opacity="1" stroke-width="2" d="M0 0"></path></g><g style="display: block;" transform="matrix(1,0,0,1,36,36)" opacity="1"><path stroke-linecap="butt" stroke-linejoin="miter" fill-opacity="0" stroke-miterlimit="4" stroke="rgb(155,55,255)" stroke-opacity="1" stroke-width="2" d=" M-0.10599999874830246,2.9800000190734863 C0.003000000026077032,4.315000057220459 0.06499999761581421,5.785999774932861 0.06499999761581421,7.4120001792907715 C0.06499999761581421,7.4120001792907715 0.006000000052154064,16.625999450683594 0.006000000052154064,16.625999450683594"></path></g><g style="display: block;" transform="matrix(1,0,0,1,54,44.25)" opacity="1"><path stroke-linecap="butt" stroke-linejoin="miter" fill-opacity="0" stroke-miterlimit="4" stroke="rgb(155,55,255)" stroke-opacity="1" stroke-width="2" d=" M-24.45199966430664,3.003000020980835 C-24.45199966430664,3.003000020980835 -18.042999267578125,9.496999740600586 -18.042999267578125,9.496999740600586 C-18.042999267578125,9.496999740600586 -11.54800033569336,3.003000020980835 -11.54800033569336,3.003000020980835"></path></g></g></svg>