<?xml version="1.0" ?>
<!-- Uploaded to: SVG Repo, www.svgrepo.com, Generator: SVG Repo Mixer Tools -->
<svg width="800px" height="800px" viewBox="0 0 24 24" xmlns="http://www.w3.org/2000/svg">
<defs>
<style>.cls-1{fill:#ffeabb;}.cls-2{fill:#f7bf75;}.cls-3{fill:#96ccee;}.cls-3,.cls-4{fill-rule:evenodd;}.cls-4{fill:#f1734d;}</style>
</defs>
<g data-name="Exchange Currency" id="Exchange_Currency">
<path class="cls-1" d="M6.18,13.13A4.18,4.18,0,1,1,2,17.31a4.18,4.18,0,0,1,4.18-4.18"/>
<path class="cls-1" d="M17.82,2.51a4.18,4.18,0,1,1-4.18,4.18,4.18,4.18,0,0,1,4.18-4.18"/>
<path class="cls-2" d="M6.18,14a3.36,3.36,0,1,1-3.36,3.36A3.36,3.36,0,0,1,6.18,14"/>
<path class="cls-2" d="M17.82,3.51a3.18,3.18,0,1,1-3.18,3.18,3.17,3.17,0,0,1,3.18-3.18"/>
<path class="cls-3" d="M10.77,10.48a.49.49,0,0,1-.45-.47.5.5,0,0,1,.47-.53L12,9.41a.46.46,0,0,1,.38.15.48.48,0,0,1,.15.38l-.08,1.23a.5.5,0,0,1-1,0l-1.36,1.36a.51.51,0,0,1-.71,0,.5.5,0,0,1,0-.71Zm1.75,2.62,1.36-1.36a.51.51,0,0,1,.71,0,.5.5,0,0,1,0,.71l-1.36,1.36a.5.5,0,0,1,0,1L12,14.88a.49.49,0,0,1-.38-.14.51.51,0,0,1-.15-.39l.08-1.23a.5.5,0,0,1,1,0Z"/>
<path class="cls-4" d="M5.69,15.33V15.2a.5.5,0,0,1,1,0v.13a1.26,1.26,0,0,1,.4.28,1.09,1.09,0,0,1,.27.4.5.5,0,0,1-.26.66.52.52,0,0,1-.66-.27.24.24,0,0,0-.06-.09.26.26,0,0,0-.19-.08.28.28,0,0,0,0,.55,1.27,1.27,0,0,1,.5,2.44v.13a.5.5,0,0,1-1,0v-.13a1.23,1.23,0,0,1-.4-.27A1.27,1.27,0,0,1,5,18.54a.5.5,0,0,1,.92-.38.24.24,0,0,0,.06.09.32.32,0,0,0,.19.07.27.27,0,0,0,0-.54A1.27,1.27,0,0,1,4.92,16.5,1.29,1.29,0,0,1,5.69,15.33Z"/>
<path class="cls-4" d="M16,6.19A1.85,1.85,0,0,1,19.14,5a.5.5,0,0,1-.71.71A.84.84,0,0,0,17,6.19h1a.5.5,0,0,1,.5.5.5.5,0,0,1-.5.5H17a.84.84,0,0,0,.83.69.83.83,0,0,0,.59-.24.5.5,0,0,1,.71,0,.5.5,0,0,1,0,.7,1.8,1.8,0,0,1-1.3.54A1.84,1.84,0,0,1,16,7.19h-.19a.51.51,0,0,1-.5-.5.5.5,0,0,1,.5-.5Z"/>
</g>
</svg>